<svg xmlns="http://www.w3.org/2000/svg" width="512" height="512" viewBox="0 0 512 512">
  <defs>
    <linearGradient id="f" x1="0" y1="0" x2="0" y2="512" gradientUnits="userSpaceOnUse">
      <stop stop-color="#D07852"/><stop offset="1" stop-color="#B45A3C"/>
    </linearGradient>
  </defs>
  <rect width="512" height="512" rx="112" fill="url(#f)"/>
  <g fill="#ECE3D2"><path d="M228.965 130.562C178.846 134.503 140.945 161.566 127.283 203.145C120.648 223.376 119.729 232.901 120.057 275.663C120.451 318.293 121.502 326.898 127.939 339.641C131.421 346.604 137.07 352.056 144.361 355.669C152.966 359.938 152.835 359.938 154.674 354.683C164.527 326.175 204.004 327.423 211.427 356.522C212.346 360.069 212.346 360.069 253.597 360.069C294.848 360.069 294.848 360.069 295.702 356.654C301.614 333.467 329.399 325.978 345.821 343.254C348.777 346.341 353.112 354.355 353.112 356.785C353.178 360.398 357.25 360.529 366.906 357.376C384.707 351.465 391.735 338.919 391.013 314.418C390.356 292.15 388.517 288.669 367.431 268.7C360.075 261.803 358.498 257.074 356.396 236.251C353.178 203.539 346.083 184.753 329.859 165.77C322.174 156.836 308.248 146.589 297.41 141.991C294.257 140.678 290.644 139.101 289.396 138.576C281.185 135.029 267.588 132.138 252.612 130.825C240.854 129.774 239.343 129.774 228.965 130.562Z"/><path d="M177.73 345.224C157.367 351.465 159.994 380.432 181.014 381.943C203.282 383.519 209.39 351.924 188.042 345.619C184.495 344.568 180.423 344.436 177.73 345.224Z"/><path d="M318.955 345.224C297.673 352.187 303.19 383.257 325.458 381.943C349.236 380.498 349.105 345.947 325.261 344.896C322.699 344.765 319.875 344.896 318.955 345.224Z"/></g>
  <g fill="#C56A4A"><path d="M182.459 223.836C176.285 226.201 180.948 236.185 190.407 240.849C202.428 246.761 216.682 243.542 223.644 233.361C226.666 228.96 226.863 227.449 224.498 225.084C221.739 222.325 220.885 222.523 216.287 227.318C207.748 236.12 198.158 236.514 190.21 228.369C185.875 223.902 184.495 223.048 182.459 223.836Z"/><path d="M256.093 223.902C253.334 225.216 252.875 227.909 254.911 231.39C264.173 247.221 287.294 248.272 297.607 233.361C300.3 229.42 300.497 227.186 298.395 225.216C295.505 222.523 293.206 223.311 289.462 228.237C283.222 236.317 269.165 235.857 263.056 227.449C261.48 225.216 258.524 222.851 257.67 223.179C257.604 223.179 256.882 223.508 256.093 223.902Z"/></g>
</svg>
